<svg xmlns="http://www.w3.org/2000/svg" width="226" height="64" fill="none"><path fill="#c7401f" d="M16.64 50.752q-4.608.064-8.384-2.24Q4.48 46.144 2.24 41.92T0 32.192q0-5.888 2.112-9.92 2.112-4.096 5.568-6.208a14.54 14.54 0 0 1 7.616-2.112q2.048 0 3.712.576 1.728.511 2.944 1.408V1.664h8.064v39.36q0 1.792.576 2.688.576.833 2.368.96v5.504a24.6 24.6 0 0 1-4.992-.384q-2.432-.383-3.712-1.664-1.408 1.216-3.328 1.856-1.856.704-4.288.768m.64-7.936q1.216 0 2.368-.192a10.7 10.7 0 0 0 2.24-.768V24.064q-2.175-2.048-5.504-2.048t-5.696 2.688Q8.32 27.329 8.32 32.256q0 3.2 1.28 5.632 1.28 2.369 3.328 3.648 2.048 1.28 4.352 1.28m34.375-30.528q-2.43 0-4.288-1.792-1.856-1.792-1.856-4.352.001-2.56 1.856-4.352Q49.224 0 51.655 0q2.625 0 4.352 1.792Q57.8 3.584 57.8 6.144t-1.792 4.352q-1.727 1.792-4.352 1.792m-14.72 37.376V41.92h11.2V24.256H40.2v-7.808h16.576V41.92h9.472v7.744zm33.608 0v-7.616h6.208V18.496l-4.736-.832v-3.712h11.264l1.28 3.776a18.4 18.4 0 0 1 4.544-3.136 11.2 11.2 0 0 1 5.248-1.152q3.2.064 5.312 1.408 2.176 1.344 3.776 3.072l-5.632 5.952a8.3 8.3 0 0 0-2.24-1.792 5.26 5.26 0 0 0-2.752-.768q-1.984 0-3.968 1.024-1.92 1.024-3.712 2.816v16.896h12.8v7.616zm65.167 1.728q1.984 2.56 4.672 3.456 2.688.96 5.824 1.088 4.352.191 6.528-.832 2.176-1.024 2.176-2.56 0-1.728-1.728-2.496-1.664-.704-4.928-.704h-4.032q-5.632 0-9.216-1.792t-3.584-5.312q0-2.24 1.28-3.776 1.344-1.6 3.52-2.624-2.177-1.28-3.648-3.776-1.408-2.496-1.408-5.824 0-3.648 1.856-6.528 1.856-2.945 5.12-4.608 3.328-1.664 7.744-1.664 4.352 0 7.68 1.664 1.216-.64 1.472-2.432.32-1.793.32-4.032h7.872q0 3.648-1.088 6.336t-3.904 3.968q2.304 3.136 2.24 7.296 0 4.608-2.112 7.296-2.047 2.625-5.568 3.84-3.456 1.152-7.744 1.408-2.368.128-3.968.384t-1.6 1.152 1.92 1.152q1.984.192 4.288.192h1.92q7.552 0 11.584 2.624 4.032 2.56 4.032 7.936 0 3.329-1.728 5.952-1.728 2.625-5.376 4.16-3.583 1.536-9.408 1.536-11.84 0-17.344-8.832zm10.176-19.968q3.072 0 4.672-1.344 1.664-1.408 1.6-3.776-.065-2.368-1.728-3.904t-4.544-1.536q-2.88 0-4.608 1.536t-1.792 3.904 1.664 3.776q1.792 1.344 4.736 1.344m49.095 9.408q0 1.792.512 2.688.513.833 2.304.96v5.696q-4.416.128-6.464-.64-1.983-.832-3.264-2.816-1.407 1.6-3.84 2.816-2.432 1.152-5.888 1.152-3.52 0-6.4-1.344t-4.544-3.904-1.664-6.208q0-3.52 1.344-5.824 1.344-2.368 3.584-3.776a17 17 0 0 1 5.056-2.048 32 32 0 0 1 5.632-.896q2.88-.192 5.44-.064v-.896q0-2.176-1.472-3.456t-4.8-1.28q-2.24 0-4.544.576a21 21 0 0 0-4.48 1.6l-3.136-6.72a30.9 30.9 0 0 1 6.784-2.24q3.456-.768 6.72-.768 2.112 0 4.352.512a13.9 13.9 0 0 1 4.288 1.728q1.985 1.152 3.2 3.2 1.28 2.047 1.28 5.056zm-21.12-1.92q0 2.176 1.664 3.52 1.728 1.28 4.096 1.216 2.625-.127 4.224-1.216a9.6 9.6 0 0 0 2.752-2.944v-6.08a38 38 0 0 0-4.416 0q-2.24.128-4.16.704-1.856.576-3.008 1.728t-1.152 3.072m25.224-37.248h15.04V36.16q0 1.28.32 2.624.384 1.28 1.536 2.112t3.456.832h6.272v7.936h-10.56q-5.568 0-7.616-3.264-1.984-3.328-1.984-9.6V6.336l-6.464-1.024z"/><path fill="#5a1d0e" d="M104.278 57.344v-.64l16.96-55.04h8.384v.64l-16.96 55.04z"/></svg>
